<svg xmlns="http://www.w3.org/2000/svg" xmlns:xlink="http://www.w3.org/1999/xlink" width="336" zoomAndPan="magnify" viewBox="0 0 252 143.999998" height="192" preserveAspectRatio="xMidYMid meet" version="1.0"><defs><g/><clipPath id="75f1653fb0"><path d="M 126 51 L 134.699219 51 L 134.699219 53 L 126 53 Z M 126 51 " clip-rule="nonzero"/></clipPath><clipPath id="984e88076b"><path d="M 117 56 L 134.699219 56 L 134.699219 58 L 117 58 Z M 117 56 " clip-rule="nonzero"/></clipPath><clipPath id="d3b3e9c5db"><path d="M 132 47 L 134.699219 47 L 134.699219 58 L 132 58 Z M 132 47 " clip-rule="nonzero"/></clipPath><clipPath id="95845780d7"><path d="M 129 60 L 134.699219 60 L 134.699219 62 L 129 62 Z M 129 60 " clip-rule="nonzero"/></clipPath><clipPath id="535499169d"><path d="M 94 89 L 96 89 L 96 94.703125 L 94 94.703125 Z M 94 89 " clip-rule="nonzero"/></clipPath><clipPath id="c9684c454a"><path d="M 98 89 L 103 89 L 103 94.703125 L 98 94.703125 Z M 98 89 " clip-rule="nonzero"/></clipPath><clipPath id="db0d18eee3"><path d="M 105 89 L 110 89 L 110 94.703125 L 105 94.703125 Z M 105 89 " clip-rule="nonzero"/></clipPath><clipPath id="47078088ea"><path d="M 112 89 L 117 89 L 117 94.703125 L 112 94.703125 Z M 112 89 " clip-rule="nonzero"/></clipPath><clipPath id="7af0558c62"><path d="M 119 89 L 124 89 L 124 94.703125 L 119 94.703125 Z M 119 89 " clip-rule="nonzero"/></clipPath><clipPath id="72978827d1"><path d="M 126 89 L 128 89 L 128 94.703125 L 126 94.703125 Z M 126 89 " clip-rule="nonzero"/></clipPath><clipPath id="bd4cdb7383"><path d="M 130 88.703125 L 136 88.703125 L 136 94.703125 L 130 94.703125 Z M 130 88.703125 " clip-rule="nonzero"/></clipPath><clipPath id="f75b8405a6"><path d="M 138 89 L 144 89 L 144 94.703125 L 138 94.703125 Z M 138 89 " clip-rule="nonzero"/></clipPath><clipPath id="f8a426cbfa"><path d="M 146 89 L 151 89 L 151 94.703125 L 146 94.703125 Z M 146 89 " clip-rule="nonzero"/></clipPath><clipPath id="a6f522c959"><path d="M 153 88.703125 L 157.75 88.703125 L 157.75 94.703125 L 153 94.703125 Z M 153 88.703125 " clip-rule="nonzero"/></clipPath></defs><path stroke-linecap="round" transform="matrix(0.46922, 0, 0, 0.469286, 126.014438, 54.569608)" fill="none" stroke-linejoin="round" d="M -15.998094 -13.999164 L -15.998094 14.002168 " stroke="#8E7A6A" stroke-width="2.3" stroke-opacity="1" stroke-miterlimit="4"/><path stroke-linecap="round" transform="matrix(0.46922, 0, 0, 0.469286, 126.014438, 54.569608)" fill="none" stroke-linejoin="round" d="M -15.998094 -13.999164 L 2.000527 -13.999164 " stroke="#8E7A6A" stroke-width="2.3" stroke-opacity="1" stroke-miterlimit="4"/><path stroke-linecap="round" transform="matrix(0.46922, 0, 0, 0.469286, 126.014438, 54.569608)" fill="none" stroke-linejoin="round" d="M -15.998094 14.002168 L -2.003792 14.002168 " stroke="#8E7A6A" stroke-width="2.3" stroke-opacity="1" stroke-miterlimit="4"/><path stroke-linecap="round" transform="matrix(0.46922, 0, 0, 0.469286, 126.014438, 54.569608)" fill="none" stroke-linejoin="round" d="M 2.000527 -13.999164 L 2.000527 14.002168 " stroke="#8E7A6A" stroke-width="2.3" stroke-opacity="1" stroke-miterlimit="4"/><g clip-path="url(#75f1653fb0)"><path stroke-linecap="round" transform="matrix(0.46922, 0, 0, 0.469286, 126.014438, 54.569608)" fill="none" stroke-linejoin="round" d="M 2.000527 -5.999973 L 16.003154 -5.999973 " stroke="#8E7A6A" stroke-width="2.3" stroke-opacity="1" stroke-miterlimit="4"/></g><g clip-path="url(#984e88076b)"><path stroke-linecap="round" transform="matrix(0.46922, 0, 0, 0.469286, 126.014438, 54.569608)" fill="none" stroke-linejoin="round" d="M -15.998094 6.002977 L 16.003154 6.002977 " stroke="#8E7A6A" stroke-width="2.3" stroke-opacity="1" stroke-miterlimit="4"/></g><g clip-path="url(#d3b3e9c5db)"><path stroke-linecap="round" transform="matrix(0.46922, 0, 0, 0.469286, 126.014438, 54.569608)" fill="none" stroke-linejoin="round" d="M 16.003154 -13.999164 L 16.003154 6.002977 " stroke="#8E7A6A" stroke-width="2.3" stroke-opacity="1" stroke-miterlimit="4"/></g><g clip-path="url(#95845780d7)"><path stroke-linecap="round" transform="matrix(0.46922, 0, 0, 0.469286, 126.014438, 54.569608)" fill="none" stroke-linejoin="round" d="M 9.00184 14.002168 L 16.003154 14.002168 " stroke="#8E7A6A" stroke-width="2.3" stroke-opacity="1" stroke-miterlimit="4"/></g><g fill="#24211E" fill-opacity="1"><g transform="translate(98.823412, 82.189271)"><g><path d="M 12.8125 -6.09375 C 12.8125 -4.832031 12.570312 -3.726562 12.09375 -2.78125 C 11.613281 -1.832031 10.921875 -1.101562 10.015625 -0.59375 C 9.109375 -0.0820312 8.039062 0.171875 6.8125 0.171875 C 5.570312 0.171875 4.5 -0.078125 3.59375 -0.578125 C 2.695312 -1.085938 2.007812 -1.816406 1.53125 -2.765625 C 1.0625 -3.710938 0.828125 -4.820312 0.828125 -6.09375 C 0.828125 -8.03125 1.351562 -9.539062 2.40625 -10.625 C 3.46875 -11.71875 4.941406 -12.265625 6.828125 -12.265625 C 8.054688 -12.265625 9.125 -12.019531 10.03125 -11.53125 C 10.9375 -11.039062 11.625 -10.328125 12.09375 -9.390625 C 12.570312 -8.460938 12.8125 -7.363281 12.8125 -6.09375 Z M 11.140625 -6.09375 C 11.140625 -7.601562 10.765625 -8.785156 10.015625 -9.640625 C 9.265625 -10.492188 8.203125 -10.921875 6.828125 -10.921875 C 5.453125 -10.921875 4.382812 -10.5 3.625 -9.65625 C 2.875 -8.8125 2.5 -7.625 2.5 -6.09375 C 2.5 -4.582031 2.878906 -3.378906 3.640625 -2.484375 C 4.398438 -1.597656 5.457031 -1.15625 6.8125 -1.15625 C 8.207031 -1.15625 9.273438 -1.582031 10.015625 -2.4375 C 10.765625 -3.300781 11.140625 -4.519531 11.140625 -6.09375 Z M 11.140625 -6.09375 "/></g></g></g><g fill="#24211E" fill-opacity="1"><g transform="translate(114.212004, 82.189271)"><g><path d="M 10.78125 -8.453125 C 10.78125 -7.304688 10.40625 -6.394531 9.65625 -5.71875 C 8.914062 -5.039062 7.90625 -4.703125 6.625 -4.703125 L 3.078125 -4.703125 L 3.078125 0 L 1.4375 0 L 1.4375 -12.078125 L 6.53125 -12.078125 C 7.882812 -12.078125 8.929688 -11.757812 9.671875 -11.125 C 10.410156 -10.488281 10.78125 -9.597656 10.78125 -8.453125 Z M 9.140625 -8.421875 C 9.140625 -9.984375 8.203125 -10.765625 6.328125 -10.765625 L 3.078125 -10.765625 L 3.078125 -6 L 6.390625 -6 C 8.222656 -6 9.140625 -6.804688 9.140625 -8.421875 Z M 9.140625 -8.421875 "/></g></g></g><g fill="#24211E" fill-opacity="1"><g transform="translate(127.655047, 82.189271)"><g><path d="M 6.265625 0.171875 C 5.273438 0.171875 4.410156 -0.00390625 3.671875 -0.359375 C 2.941406 -0.722656 2.375 -1.25 1.96875 -1.9375 C 1.5625 -2.625 1.359375 -3.441406 1.359375 -4.390625 L 1.359375 -12.078125 L 3 -12.078125 L 3 -4.53125 C 3 -3.425781 3.273438 -2.585938 3.828125 -2.015625 C 4.390625 -1.441406 5.203125 -1.15625 6.265625 -1.15625 C 7.347656 -1.15625 8.191406 -1.453125 8.796875 -2.046875 C 9.398438 -2.640625 9.703125 -3.503906 9.703125 -4.640625 L 9.703125 -12.078125 L 11.328125 -12.078125 L 11.328125 -4.546875 C 11.328125 -3.566406 11.117188 -2.722656 10.703125 -2.015625 C 10.285156 -1.304688 9.695312 -0.765625 8.9375 -0.390625 C 8.1875 -0.015625 7.296875 0.171875 6.265625 0.171875 Z M 6.265625 0.171875 "/></g></g></g><g fill="#24211E" fill-opacity="1"><g transform="translate(142.06658, 82.189271)"><g><path d="M 10.90625 -3.328125 C 10.90625 -2.210938 10.46875 -1.347656 9.59375 -0.734375 C 8.726562 -0.128906 7.503906 0.171875 5.921875 0.171875 C 2.972656 0.171875 1.265625 -0.851562 0.796875 -2.90625 L 2.390625 -3.21875 C 2.566406 -2.488281 2.953125 -1.953125 3.546875 -1.609375 C 4.140625 -1.273438 4.953125 -1.109375 5.984375 -1.109375 C 7.035156 -1.109375 7.847656 -1.289062 8.421875 -1.65625 C 8.992188 -2.019531 9.28125 -2.550781 9.28125 -3.25 C 9.28125 -3.644531 9.191406 -3.960938 9.015625 -4.203125 C 8.835938 -4.453125 8.582031 -4.65625 8.25 -4.8125 C 7.925781 -4.976562 7.539062 -5.113281 7.09375 -5.21875 C 6.644531 -5.332031 6.144531 -5.453125 5.59375 -5.578125 C 4.632812 -5.785156 3.90625 -5.992188 3.40625 -6.203125 C 2.914062 -6.421875 2.523438 -6.660156 2.234375 -6.921875 C 1.953125 -7.179688 1.734375 -7.484375 1.578125 -7.828125 C 1.429688 -8.179688 1.359375 -8.582031 1.359375 -9.03125 C 1.359375 -10.0625 1.753906 -10.859375 2.546875 -11.421875 C 3.335938 -11.984375 4.472656 -12.265625 5.953125 -12.265625 C 7.328125 -12.265625 8.375 -12.050781 9.09375 -11.625 C 9.820312 -11.207031 10.332031 -10.492188 10.625 -9.484375 L 9.015625 -9.203125 C 8.835938 -9.835938 8.5 -10.300781 8 -10.59375 C 7.5 -10.882812 6.8125 -11.03125 5.9375 -11.03125 C 4.96875 -11.03125 4.226562 -10.867188 3.71875 -10.546875 C 3.207031 -10.222656 2.953125 -9.742188 2.953125 -9.109375 C 2.953125 -8.742188 3.050781 -8.4375 3.25 -8.1875 C 3.445312 -7.945312 3.734375 -7.742188 4.109375 -7.578125 C 4.484375 -7.410156 5.222656 -7.203125 6.328125 -6.953125 C 6.703125 -6.867188 7.070312 -6.78125 7.4375 -6.6875 C 7.8125 -6.601562 8.164062 -6.5 8.5 -6.375 C 8.832031 -6.25 9.144531 -6.101562 9.4375 -5.9375 C 9.738281 -5.769531 10 -5.566406 10.21875 -5.328125 C 10.4375 -5.085938 10.601562 -4.804688 10.71875 -4.484375 C 10.84375 -4.160156 10.90625 -3.773438 10.90625 -3.328125 Z M 10.90625 -3.328125 "/></g></g></g><g clip-path="url(#535499169d)"><g fill="#24211E" fill-opacity="1"><g transform="translate(93.638617, 94.261057)"><g><path d="M 0.703125 0 L 0.703125 -5.1875 L 1.40625 -5.1875 L 1.40625 0 Z M 0.703125 0 "/></g></g></g></g><g clip-path="url(#c9684c454a)"><g fill="#24211E" fill-opacity="1"><g transform="translate(97.730268, 94.261057)"><g><path d="M 4 0 L 1.21875 -4.421875 L 1.234375 -4.0625 L 1.25 -3.453125 L 1.25 0 L 0.625 0 L 0.625 -5.1875 L 1.4375 -5.1875 L 4.25 -0.734375 C 4.21875 -1.222656 4.203125 -1.570312 4.203125 -1.78125 L 4.203125 -5.1875 L 4.84375 -5.1875 L 4.84375 0 Z M 4 0 "/></g></g></g></g><g clip-path="url(#db0d18eee3)"><g fill="#24211E" fill-opacity="1"><g transform="translate(105.178604, 94.261057)"><g><path d="M 2.65625 -4.625 L 2.65625 0 L 1.953125 0 L 1.953125 -4.625 L 0.171875 -4.625 L 0.171875 -5.1875 L 4.453125 -5.1875 L 4.453125 -4.625 Z M 2.65625 -4.625 "/></g></g></g></g><g clip-path="url(#47078088ea)"><g fill="#24211E" fill-opacity="1"><g transform="translate(111.785925, 94.261057)"><g><path d="M 0.625 0 L 0.625 -5.1875 L 4.5625 -5.1875 L 4.5625 -4.625 L 1.328125 -4.625 L 1.328125 -2.953125 L 4.34375 -2.953125 L 4.34375 -2.390625 L 1.328125 -2.390625 L 1.328125 -0.578125 L 4.71875 -0.578125 L 4.71875 0 Z M 0.625 0 "/></g></g></g></g><g clip-path="url(#7af0558c62)"><g fill="#24211E" fill-opacity="1"><g transform="translate(118.817437, 94.261057)"><g><path d="M 4.296875 0 L 2.953125 -2.15625 L 1.328125 -2.15625 L 1.328125 0 L 0.625 0 L 0.625 -5.1875 L 3.0625 -5.1875 C 3.65625 -5.1875 4.109375 -5.054688 4.421875 -4.796875 C 4.742188 -4.535156 4.90625 -4.171875 4.90625 -3.703125 C 4.90625 -3.316406 4.789062 -2.992188 4.5625 -2.734375 C 4.34375 -2.472656 4.035156 -2.304688 3.640625 -2.234375 L 5.109375 0 Z M 4.1875 -3.703125 C 4.1875 -4.003906 4.082031 -4.234375 3.875 -4.390625 C 3.675781 -4.546875 3.382812 -4.625 3 -4.625 L 1.328125 -4.625 L 1.328125 -2.71875 L 3.03125 -2.71875 C 3.394531 -2.71875 3.675781 -2.800781 3.875 -2.96875 C 4.082031 -3.144531 4.1875 -3.390625 4.1875 -3.703125 Z M 4.1875 -3.703125 "/></g></g></g></g><g clip-path="url(#72978827d1)"><g fill="#24211E" fill-opacity="1"><g transform="translate(126.265773, 94.261057)"><g><path d="M 0.703125 0 L 0.703125 -5.1875 L 1.40625 -5.1875 L 1.40625 0 Z M 0.703125 0 "/></g></g></g></g><g clip-path="url(#bd4cdb7383)"><g fill="#24211E" fill-opacity="1"><g transform="translate(130.357424, 94.261057)"><g><path d="M 5.515625 -2.625 C 5.515625 -2.082031 5.410156 -1.601562 5.203125 -1.1875 C 4.992188 -0.78125 4.695312 -0.46875 4.3125 -0.25 C 3.925781 -0.03125 3.46875 0.078125 2.9375 0.078125 C 2.40625 0.078125 1.941406 -0.03125 1.546875 -0.25 C 1.160156 -0.46875 0.863281 -0.78125 0.65625 -1.1875 C 0.457031 -1.59375 0.359375 -2.070312 0.359375 -2.625 C 0.359375 -3.445312 0.582031 -4.09375 1.03125 -4.5625 C 1.488281 -5.03125 2.125 -5.265625 2.9375 -5.265625 C 3.46875 -5.265625 3.925781 -5.160156 4.3125 -4.953125 C 4.707031 -4.742188 5.003906 -4.4375 5.203125 -4.03125 C 5.410156 -3.632812 5.515625 -3.164062 5.515625 -2.625 Z M 4.796875 -2.625 C 4.796875 -3.269531 4.632812 -3.773438 4.3125 -4.140625 C 3.988281 -4.503906 3.53125 -4.6875 2.9375 -4.6875 C 2.34375 -4.6875 1.882812 -4.503906 1.5625 -4.140625 C 1.238281 -3.785156 1.078125 -3.28125 1.078125 -2.625 C 1.078125 -1.96875 1.238281 -1.445312 1.5625 -1.0625 C 1.894531 -0.6875 2.351562 -0.5 2.9375 -0.5 C 3.539062 -0.5 4 -0.679688 4.3125 -1.046875 C 4.632812 -1.421875 4.796875 -1.945312 4.796875 -2.625 Z M 4.796875 -2.625 "/></g></g></g></g><g clip-path="url(#f75b8405a6)"><g fill="#24211E" fill-opacity="1"><g transform="translate(138.226268, 94.261057)"><g><path d="M 4.296875 0 L 2.953125 -2.15625 L 1.328125 -2.15625 L 1.328125 0 L 0.625 0 L 0.625 -5.1875 L 3.0625 -5.1875 C 3.65625 -5.1875 4.109375 -5.054688 4.421875 -4.796875 C 4.742188 -4.535156 4.90625 -4.171875 4.90625 -3.703125 C 4.90625 -3.316406 4.789062 -2.992188 4.5625 -2.734375 C 4.34375 -2.472656 4.035156 -2.304688 3.640625 -2.234375 L 5.109375 0 Z M 4.1875 -3.703125 C 4.1875 -4.003906 4.082031 -4.234375 3.875 -4.390625 C 3.675781 -4.546875 3.382812 -4.625 3 -4.625 L 1.328125 -4.625 L 1.328125 -2.71875 L 3.03125 -2.71875 C 3.394531 -2.71875 3.675781 -2.800781 3.875 -2.96875 C 4.082031 -3.144531 4.1875 -3.390625 4.1875 -3.703125 Z M 4.1875 -3.703125 "/></g></g></g></g><g clip-path="url(#f8a426cbfa)"><g fill="#24211E" fill-opacity="1"><g transform="translate(145.674605, 94.261057)"><g><path d="M 0.625 0 L 0.625 -5.1875 L 4.5625 -5.1875 L 4.5625 -4.625 L 1.328125 -4.625 L 1.328125 -2.953125 L 4.34375 -2.953125 L 4.34375 -2.390625 L 1.328125 -2.390625 L 1.328125 -0.578125 L 4.71875 -0.578125 L 4.71875 0 Z M 0.625 0 "/></g></g></g></g><g clip-path="url(#a6f522c959)"><g fill="#24211E" fill-opacity="1"><g transform="translate(152.706117, 94.261057)"><g><path d="M 4.703125 -1.4375 C 4.703125 -0.957031 4.515625 -0.582031 4.140625 -0.3125 C 3.765625 -0.0507812 3.234375 0.078125 2.546875 0.078125 C 1.273438 0.078125 0.539062 -0.363281 0.34375 -1.25 L 1.03125 -1.375 C 1.101562 -1.0625 1.265625 -0.832031 1.515625 -0.6875 C 1.773438 -0.539062 2.128906 -0.46875 2.578125 -0.46875 C 3.023438 -0.46875 3.375 -0.546875 3.625 -0.703125 C 3.875 -0.859375 4 -1.085938 4 -1.390625 C 4 -1.566406 3.957031 -1.707031 3.875 -1.8125 C 3.800781 -1.914062 3.691406 -2 3.546875 -2.0625 C 3.410156 -2.132812 3.242188 -2.191406 3.046875 -2.234375 C 2.859375 -2.285156 2.644531 -2.335938 2.40625 -2.390625 C 2 -2.484375 1.6875 -2.570312 1.46875 -2.65625 C 1.257812 -2.75 1.09375 -2.851562 0.96875 -2.96875 C 0.84375 -3.082031 0.75 -3.210938 0.6875 -3.359375 C 0.625 -3.515625 0.59375 -3.6875 0.59375 -3.875 C 0.59375 -4.320312 0.757812 -4.664062 1.09375 -4.90625 C 1.4375 -5.144531 1.925781 -5.265625 2.5625 -5.265625 C 3.15625 -5.265625 3.609375 -5.175781 3.921875 -5 C 4.234375 -4.820312 4.453125 -4.515625 4.578125 -4.078125 L 3.875 -3.953125 C 3.800781 -4.222656 3.65625 -4.421875 3.4375 -4.546875 C 3.226562 -4.671875 2.9375 -4.734375 2.5625 -4.734375 C 2.144531 -4.734375 1.828125 -4.664062 1.609375 -4.53125 C 1.390625 -4.394531 1.28125 -4.191406 1.28125 -3.921875 C 1.28125 -3.753906 1.320312 -3.617188 1.40625 -3.515625 C 1.488281 -3.410156 1.609375 -3.320312 1.765625 -3.25 C 1.929688 -3.175781 2.25 -3.085938 2.71875 -2.984375 C 2.882812 -2.953125 3.046875 -2.914062 3.203125 -2.875 C 3.359375 -2.832031 3.507812 -2.785156 3.65625 -2.734375 C 3.800781 -2.679688 3.9375 -2.617188 4.0625 -2.546875 C 4.1875 -2.484375 4.296875 -2.398438 4.390625 -2.296875 C 4.484375 -2.191406 4.554688 -2.066406 4.609375 -1.921875 C 4.671875 -1.785156 4.703125 -1.625 4.703125 -1.4375 Z M 4.703125 -1.4375 "/></g></g></g></g></svg>