<svg xmlns="http://www.w3.org/2000/svg" xmlns:xlink="http://www.w3.org/1999/xlink" viewBox="18.00 110.50 770.50 569.50" preserveAspectRatio="xMidYMid meet" version="1.0"><path stroke-linecap="round" transform="matrix(5.643657, 0, 0, 5.646097, 404.937871, 195.558058)" fill="none" stroke-linejoin="round" d="M -15.998391 -13.999482 L -15.998391 14.002439 " stroke="#8E7A6A" stroke-width="2.3" stroke-opacity="1" stroke-miterlimit="4"/><path stroke-linecap="round" transform="matrix(5.643657, 0, 0, 5.646097, 404.937871, 195.558058)" fill="none" stroke-linejoin="round" d="M -15.998391 -13.999482 L 2.000244 -13.999482 " stroke="#8E7A6A" stroke-width="2.3" stroke-opacity="1" stroke-miterlimit="4"/><path stroke-linecap="round" transform="matrix(5.643657, 0, 0, 5.646097, 404.937871, 195.558058)" fill="none" stroke-linejoin="round" d="M -15.998391 14.002439 L -2.003836 14.002439 " stroke="#8E7A6A" stroke-width="2.3" stroke-opacity="1" stroke-miterlimit="4"/><path stroke-linecap="round" transform="matrix(5.643657, 0, 0, 5.646097, 404.937871, 195.558058)" fill="none" stroke-linejoin="round" d="M 2.000244 -13.999482 L 2.000244 14.002439 " stroke="#8E7A6A" stroke-width="2.3" stroke-opacity="1" stroke-miterlimit="4"/><path stroke-linecap="round" transform="matrix(5.643658, 0, 0, 5.646097, 404.937871, 195.558058)" fill="none" stroke-linejoin="round" d="M 2.000244 -6.000317 L 16.003103 -6.000317 " stroke="#8E7A6A" stroke-width="2.3" stroke-opacity="1" stroke-miterlimit="4"/><path stroke-linecap="round" transform="matrix(5.643658, 0, 0, 5.646097, 404.937871, 195.558058)" fill="none" stroke-linejoin="round" d="M -15.998389 6.003274 L 16.003103 6.003274 " stroke="#8E7A6A" stroke-width="2.3" stroke-opacity="1" stroke-miterlimit="4"/><path stroke-linecap="round" transform="matrix(5.643658, 0, 0, 5.646097, 404.937871, 195.558058)" fill="none" stroke-linejoin="round" d="M 16.003103 -13.999482 L 16.003103 6.003274 " stroke="#8E7A6A" stroke-width="2.3" stroke-opacity="1" stroke-miterlimit="4"/><path stroke-linecap="round" transform="matrix(5.643658, 0, 0, 5.646097, 404.937871, 195.558058)" fill="none" stroke-linejoin="round" d="M 9.002019 14.002439 L 16.003103 14.002439 " stroke="#8E7A6A" stroke-width="2.3" stroke-opacity="1" stroke-miterlimit="4"/><path fill="#24211E" d="M 231.996094 454.542969 C 231.996094 469.722656 229.082031 483.023438 223.351562 494.394531 C 217.574219 505.816406 209.257812 514.605469 198.355469 520.714844 C 187.457031 526.871094 174.582031 529.925781 159.832031 529.925781 C 144.890625 529.925781 132.015625 526.917969 121.117188 520.902344 C 110.308594 514.792969 102.039062 506.003906 96.308594 494.582031 C 90.671875 483.210938 87.851562 469.863281 87.851562 454.542969 C 87.851562 431.230469 94.148438 413.089844 106.832031 400.023438 C 119.613281 386.867188 137.324219 380.285156 160.019531 380.285156 C 174.769531 380.285156 187.644531 383.246094 198.542969 389.121094 C 209.445312 395.042969 217.714844 403.597656 223.351562 414.875 C 229.082031 426.0625 231.996094 439.265625 231.996094 454.542969 Z M 211.886719 454.542969 C 211.886719 436.402344 207.378906 422.160156 198.355469 411.867188 C 189.335938 401.621094 176.554688 396.453125 160.019531 396.453125 C 143.480469 396.453125 130.605469 401.527344 121.492188 411.679688 C 112.472656 421.832031 107.960938 436.117188 107.960938 454.542969 C 107.960938 472.730469 112.519531 487.203125 121.679688 497.96875 C 130.792969 508.636719 143.527344 513.945312 159.832031 513.945312 C 176.601562 513.945312 189.429688 508.824219 198.355469 498.53125 C 207.378906 488.144531 211.886719 473.480469 211.886719 454.542969 Z M 211.886719 454.542969 " fill-opacity="1" fill-rule="nonzero"/><path fill="#24211E" d="M 392.65625 426.15625 C 392.65625 439.972656 388.144531 450.921875 379.125 459.054688 C 370.199219 467.230469 358.074219 471.273438 342.664062 471.273438 L 300.003906 471.273438 L 300.003906 527.855469 L 280.269531 527.855469 L 280.269531 382.542969 L 341.539062 382.542969 C 357.792969 382.542969 370.386719 386.394531 379.3125 394.007812 C 388.191406 401.667969 392.65625 412.386719 392.65625 426.15625 Z M 372.921875 426.53125 C 372.921875 407.734375 361.644531 398.332031 339.09375 398.332031 L 300.003906 398.332031 L 300.003906 455.667969 L 339.847656 455.667969 C 361.882812 455.667969 372.921875 445.988281 372.921875 426.53125 Z M 372.921875 426.53125 " fill-opacity="1" fill-rule="nonzero"/><path fill="#24211E" d="M 500.03125 529.925781 C 488.097656 529.925781 477.714844 527.808594 468.835938 523.535156 C 460.050781 519.164062 453.238281 512.816406 448.351562 504.546875 C 443.464844 496.273438 441.019531 486.453125 441.019531 475.03125 L 441.019531 382.542969 L 460.753906 382.542969 L 460.753906 473.339844 C 460.753906 486.640625 464.042969 496.746094 470.714844 503.605469 C 477.480469 510.515625 487.253906 513.945312 500.03125 513.945312 C 513.046875 513.945312 523.195312 510.375 530.476562 503.230469 C 537.710938 496.085938 541.378906 485.699219 541.378906 472.023438 L 541.378906 382.542969 L 560.921875 382.542969 L 560.921875 473.152344 C 560.921875 484.949219 558.386719 495.101562 553.40625 503.605469 C 548.378906 512.160156 541.285156 518.644531 532.167969 523.15625 C 523.148438 527.667969 512.4375 529.925781 500.03125 529.925781 Z M 500.03125 529.925781 " fill-opacity="1" fill-rule="nonzero"/><path fill="#24211E" d="M 729.1875 487.816406 C 729.1875 501.257812 723.925781 511.644531 713.398438 519.023438 C 702.96875 526.304688 688.265625 529.925781 669.234375 529.925781 C 633.761719 529.925781 613.230469 517.613281 607.59375 492.890625 L 626.761719 489.132812 C 628.875 497.917969 633.527344 504.359375 640.667969 508.496094 C 647.8125 512.535156 657.582031 514.511719 669.988281 514.511719 C 682.625 514.511719 692.398438 512.347656 699.304688 507.929688 C 706.164062 503.558594 709.640625 497.167969 709.640625 488.753906 C 709.640625 484.007812 708.5625 480.203125 706.445312 477.289062 C 704.285156 474.28125 701.230469 471.835938 697.238281 469.957031 C 693.339844 467.984375 688.6875 466.335938 683.332031 465.070312 C 677.925781 463.707031 671.914062 462.25 665.289062 460.746094 C 653.730469 458.253906 644.992188 455.761719 638.976562 453.226562 C 633.058594 450.59375 628.359375 447.726562 624.882812 444.578125 C 621.5 441.476562 618.871094 437.8125 616.988281 433.675781 C 615.203125 429.445312 614.359375 424.605469 614.359375 419.199219 C 614.359375 406.792969 619.105469 397.207031 628.640625 390.4375 C 638.132812 383.671875 651.804688 380.285156 669.613281 380.285156 C 686.148438 380.285156 698.742188 382.871094 707.386719 387.992188 C 716.125 393.023438 722.28125 401.621094 725.804688 413.75 L 706.445312 417.132812 C 704.285156 409.519531 700.246094 403.925781 694.230469 400.402344 C 688.21875 396.921875 679.949219 395.136719 669.421875 395.136719 C 657.773438 395.136719 648.84375 397.109375 642.738281 400.964844 C 636.582031 404.867188 633.527344 410.644531 633.527344 418.261719 C 633.527344 422.675781 634.703125 426.34375 637.097656 429.351562 C 639.449219 432.265625 642.925781 434.707031 647.433594 436.683594 C 651.945312 438.703125 660.824219 441.195312 674.121094 444.203125 C 678.632812 445.234375 683.046875 446.269531 687.464844 447.398438 C 691.976562 448.433594 696.203125 449.652344 700.246094 451.15625 C 704.238281 452.660156 707.996094 454.449219 711.519531 456.421875 C 715.136719 458.441406 718.285156 460.886719 720.917969 463.753906 C 723.546875 466.667969 725.523438 470.050781 726.929688 473.90625 C 728.433594 477.804688 729.1875 482.457031 729.1875 487.816406 Z M 729.1875 487.816406 " fill-opacity="1" fill-rule="nonzero"/><path fill="#24211E" d="M 23.988281 610.683594 L 32.445312 610.683594 L 32.445312 673.097656 L 23.988281 673.097656 Z M 23.988281 610.683594 " fill-opacity="1" fill-rule="nonzero"/><path fill="#24211E" d="M 112.855469 673.097656 L 79.402344 619.894531 L 79.589844 624.21875 L 79.777344 631.550781 L 79.777344 673.097656 L 72.261719 673.097656 L 72.261719 610.683594 L 82.03125 610.683594 L 115.859375 664.261719 C 115.484375 658.386719 115.296875 654.203125 115.296875 651.664062 L 115.296875 610.683594 L 123.003906 610.683594 L 123.003906 673.097656 Z M 112.855469 673.097656 " fill-opacity="1" fill-rule="nonzero"/><path fill="#24211E" d="M 186.277344 617.453125 L 186.277344 673.097656 L 177.820312 673.097656 L 177.820312 617.453125 L 156.398438 617.453125 L 156.398438 610.683594 L 207.890625 610.683594 L 207.890625 617.453125 Z M 186.277344 617.453125 " fill-opacity="1" fill-rule="nonzero"/><path fill="#24211E" d="M 241.316406 673.097656 L 241.316406 610.683594 L 288.675781 610.683594 L 288.675781 617.453125 L 249.773438 617.453125 L 249.773438 637.566406 L 286.046875 637.566406 L 286.046875 644.332031 L 249.773438 644.332031 L 249.773438 666.140625 L 290.558594 666.140625 L 290.558594 673.097656 Z M 241.316406 673.097656 " fill-opacity="1" fill-rule="nonzero"/><path fill="#24211E" d="M 370.054688 673.097656 L 353.894531 647.152344 L 334.347656 647.152344 L 334.347656 673.097656 L 325.890625 673.097656 L 325.890625 610.683594 L 355.210938 610.683594 C 362.351562 610.683594 367.800781 612.28125 371.558594 615.382812 C 375.410156 618.53125 377.386719 622.902344 377.386719 628.542969 C 377.386719 633.195312 375.976562 637.097656 373.25 640.199219 C 370.621094 643.347656 366.90625 645.367188 362.164062 646.214844 L 379.828125 673.097656 Z M 368.742188 628.542969 C 368.742188 624.921875 367.472656 622.152344 364.980469 620.269531 C 362.585938 618.390625 359.0625 617.453125 354.457031 617.453125 L 334.347656 617.453125 L 334.347656 640.386719 L 354.832031 640.386719 C 359.203125 640.386719 362.585938 639.398438 364.980469 637.378906 C 367.472656 635.261719 368.742188 632.300781 368.742188 628.542969 Z M 368.742188 628.542969 " fill-opacity="1" fill-rule="nonzero"/><path fill="#24211E" d="M 416.417969 610.683594 L 424.875 610.683594 L 424.875 673.097656 L 416.417969 673.097656 Z M 416.417969 610.683594 " fill-opacity="1" fill-rule="nonzero"/><path fill="#24211E" d="M 523.515625 641.515625 C 523.515625 648.046875 522.246094 653.828125 519.757812 658.808594 C 517.21875 663.695312 513.648438 667.457031 509.042969 670.089844 C 504.390625 672.71875 498.894531 674.035156 492.503906 674.035156 C 486.117188 674.035156 480.523438 672.71875 475.78125 670.089844 C 471.128906 667.457031 467.558594 663.695312 465.066406 658.808594 C 462.671875 653.921875 461.496094 648.1875 461.496094 641.515625 C 461.496094 631.644531 464.175781 623.84375 469.578125 618.203125 C 475.074219 612.5625 482.734375 609.742188 492.503906 609.742188 C 498.894531 609.742188 504.390625 611.011719 509.042969 613.503906 C 513.789062 616.042969 517.359375 619.707031 519.757812 624.59375 C 522.246094 629.386719 523.515625 635.027344 523.515625 641.515625 Z M 514.871094 641.515625 C 514.871094 633.757812 512.894531 627.695312 509.042969 623.277344 C 505.144531 618.90625 499.648438 616.699219 492.503906 616.699219 C 485.363281 616.699219 479.820312 618.90625 475.96875 623.277344 C 472.066406 627.554688 470.140625 633.617188 470.140625 641.515625 C 470.140625 649.410156 472.066406 655.707031 475.96875 660.3125 C 479.960938 664.824219 485.457031 667.082031 492.503906 667.082031 C 499.742188 667.082031 505.285156 664.917969 509.042969 660.5 C 512.894531 655.988281 514.871094 649.691406 514.871094 641.515625 Z M 514.871094 641.515625 " fill-opacity="1" fill-rule="nonzero"/><path fill="#24211E" d="M 603.5 673.097656 L 587.339844 647.152344 L 567.792969 647.152344 L 567.792969 673.097656 L 559.335938 673.097656 L 559.335938 610.683594 L 588.652344 610.683594 C 595.796875 610.683594 601.246094 612.28125 605.003906 615.382812 C 608.855469 618.53125 610.828125 622.902344 610.828125 628.542969 C 610.828125 633.195312 609.421875 637.097656 606.695312 640.199219 C 604.0625 643.347656 600.351562 645.367188 595.605469 646.214844 L 613.273438 673.097656 Z M 602.183594 628.542969 C 602.183594 624.921875 600.917969 622.152344 598.425781 620.269531 C 596.03125 618.390625 592.507812 617.453125 587.902344 617.453125 L 567.792969 617.453125 L 567.792969 640.386719 L 588.277344 640.386719 C 592.648438 640.386719 596.03125 639.398438 598.425781 637.378906 C 600.917969 635.261719 602.183594 632.300781 602.183594 628.542969 Z M 602.183594 628.542969 " fill-opacity="1" fill-rule="nonzero"/><path fill="#24211E" d="M 648.921875 673.097656 L 648.921875 610.683594 L 696.28125 610.683594 L 696.28125 617.453125 L 657.378906 617.453125 L 657.378906 637.566406 L 693.652344 637.566406 L 693.652344 644.332031 L 657.378906 644.332031 L 657.378906 666.140625 L 698.160156 666.140625 L 698.160156 673.097656 Z M 648.921875 673.097656 " fill-opacity="1" fill-rule="nonzero"/><path fill="#24211E" d="M 782.546875 655.800781 C 782.546875 661.582031 780.292969 666.09375 775.78125 669.335938 C 771.269531 672.484375 764.878906 674.035156 756.613281 674.035156 C 741.296875 674.035156 732.460938 668.726562 730.113281 658.058594 L 738.382812 656.554688 C 739.226562 660.3125 741.199219 663.085938 744.207031 664.824219 C 747.308594 666.609375 751.585938 667.457031 756.988281 667.457031 C 762.34375 667.457031 766.570312 666.515625 769.578125 664.636719 C 772.585938 662.757812 774.089844 660.03125 774.089844 656.363281 C 774.089844 654.25 773.574219 652.558594 772.585938 651.289062 C 771.691406 650.066406 770.378906 649.035156 768.640625 648.28125 C 766.996094 647.433594 764.976562 646.730469 762.625 646.214844 C 760.371094 645.601562 757.785156 644.992188 754.921875 644.332031 C 750.035156 643.207031 746.273438 642.171875 743.644531 641.136719 C 741.105469 640.011719 739.132812 638.789062 737.628906 637.378906 C 736.125 636.015625 735 634.464844 734.246094 632.679688 C 733.496094 630.796875 733.121094 628.730469 733.121094 626.476562 C 733.121094 621.117188 735.09375 616.980469 739.132812 614.066406 C 743.269531 611.199219 749.140625 609.742188 756.800781 609.742188 C 763.941406 609.742188 769.390625 610.824219 773.148438 612.941406 C 776.910156 615.101562 779.539062 618.765625 781.042969 624.03125 L 772.585938 625.535156 C 771.691406 622.292969 769.953125 619.894531 767.324219 618.390625 C 764.785156 616.886719 761.308594 616.136719 756.800781 616.136719 C 751.773438 616.136719 747.964844 616.980469 745.335938 618.578125 C 742.703125 620.222656 741.390625 622.667969 741.390625 625.910156 C 741.390625 627.929688 741.859375 629.578125 742.890625 630.796875 C 743.878906 632.066406 745.335938 633.148438 747.214844 633.996094 C 749.1875 634.886719 753.039062 635.96875 758.679688 637.191406 C 760.652344 637.566406 762.625 638.035156 764.503906 638.507812 C 766.382812 639.023438 768.167969 639.585938 769.953125 640.199219 C 771.691406 640.855469 773.335938 641.609375 774.839844 642.453125 C 776.34375 643.207031 777.660156 644.238281 778.789062 645.460938 C 779.914062 646.730469 780.761719 648.234375 781.417969 649.972656 C 782.171875 651.617188 782.546875 653.546875 782.546875 655.800781 Z M 782.546875 655.800781 " fill-opacity="1" fill-rule="nonzero"/></svg>